<?xml version="1.0" standalone="no"?>
<!DOCTYPE svg PUBLIC "-//W3C//DTD SVG 20010904//EN"
 "http://www.w3.org/TR/2001/REC-SVG-20010904/DTD/svg10.dtd">
<svg version="1.0" xmlns="http://www.w3.org/2000/svg"
 width="1067.000000pt" height="1067.000000pt" viewBox="0 0 1067.000000 1067.000000"
 preserveAspectRatio="xMidYMid meet">

<g transform="translate(0.000000,1067.000000) scale(0.100000,-0.100000)"
fill="#000000" stroke="none">
<path d="M4949 8501 c9 -6 -2 -11 -39 -16 -37 -5 -49 -10 -41 -18 6 -6 11 -20
11 -30 0 -22 79 -190 92 -195 4 -2 8 -16 8 -31 0 -15 9 -36 20 -46 12 -10 20
-31 20 -48 0 -17 8 -39 17 -49 9 -10 18 -28 20 -39 2 -10 21 -56 42 -102 65
-136 81 -173 81 -188 0 -8 9 -27 20 -44 11 -16 20 -37 20 -46 0 -9 9 -26 20
-39 11 -13 20 -29 20 -36 0 -19 38 -103 54 -119 7 -7 16 -32 20 -55 6 -39 62
-151 78 -158 4 -2 8 -12 8 -21 0 -27 35 -114 102 -253 15 -33 25 -53 42 -85 9
-17 16 -39 16 -50 0 -10 13 -45 29 -78 15 -33 39 -84 51 -112 13 -29 27 -53
32 -53 4 0 8 -11 8 -24 0 -14 4 -28 10 -31 5 -3 14 -24 21 -47 6 -22 30 -82
55 -133 24 -51 44 -100 44 -109 0 -10 5 -27 12 -39 7 -12 13 -29 15 -38 1 -9
23 -59 48 -112 25 -52 45 -100 45 -105 0 -5 8 -17 19 -26 11 -10 21 -36 24
-62 2 -25 13 -54 22 -64 10 -11 15 -20 12 -20 -7 0 48 -113 67 -138 6 -8 12
-24 13 -35 2 -12 8 -23 13 -25 6 -2 10 -10 10 -18 0 -25 32 -114 41 -114 4 0
13 -17 19 -39 5 -21 16 -44 24 -50 8 -7 12 -21 9 -31 -3 -12 1 -22 11 -26 9
-3 16 -16 16 -28 0 -12 4 -26 8 -31 4 -6 18 -37 31 -70 31 -81 43 -105 53
-105 4 0 8 -8 8 -17 0 -10 9 -31 20 -48 11 -16 20 -40 20 -52 0 -13 11 -44 24
-70 39 -75 101 -206 101 -212 3 -33 98 -239 118 -252 5 -3 8 -9 7 -13 -4 -13
22 -66 32 -66 5 0 6 -4 3 -10 -3 -5 -1 -10 4 -10 6 0 11 -16 11 -35 0 -19 5
-35 10 -35 6 0 10 -11 10 -23 0 -13 9 -34 20 -47 11 -13 20 -29 20 -36 0 -19
32 -84 42 -84 4 0 5 -6 2 -14 -3 -7 2 -16 11 -20 11 -4 14 -13 10 -25 -8 -27
12 -37 104 -51 101 -14 293 1 411 32 41 11 93 24 115 30 49 13 141 46 175 63
120 60 228 130 305 199 l40 35 -90 1 c-94 0 -198 25 -281 68 -58 30 -190 157
-257 247 -64 87 -100 153 -148 272 -30 76 -44 116 -110 328 -17 55 -49 154
-70 220 -21 66 -53 165 -70 220 -17 55 -34 109 -39 120 -4 11 -19 56 -34 100
-14 44 -38 118 -55 165 -16 47 -59 180 -95 295 -37 116 -91 284 -121 375 -30
91 -95 293 -145 450 -50 157 -105 328 -122 380 -44 137 -137 322 -212 421 -36
47 -102 119 -148 160 -45 41 -92 82 -103 92 -32 30 -194 122 -265 152 -182 76
-323 110 -500 120 -63 3 -126 8 -140 11 -17 3 -21 2 -11 -5z"/>
<path d="M4105 8121 c-11 -5 -34 -10 -52 -10 -27 -1 -42 -13 -98 -78 -56 -65
-175 -253 -175 -276 0 -3 -11 -30 -24 -59 -14 -29 -28 -67 -32 -83 -3 -17 -18
-64 -31 -105 -22 -64 -23 -79 -13 -113 8 -29 20 -42 48 -54 20 -10 48 -27 62
-39 25 -23 110 -83 210 -151 30 -20 70 -50 88 -65 18 -15 49 -37 70 -48 20
-11 57 -36 82 -55 25 -20 58 -43 74 -53 16 -9 46 -32 66 -49 21 -18 42 -33 48
-33 5 0 29 -15 51 -34 23 -19 72 -55 109 -80 37 -24 76 -54 86 -65 11 -12 25
-21 33 -21 7 0 30 -15 51 -34 21 -19 49 -37 62 -41 22 -5 27 -1 41 32 16 37
74 251 89 327 8 39 31 66 57 66 9 0 11 5 4 18 -21 39 -137 396 -171 527 -11
42 -34 100 -66 170 -99 214 -213 323 -405 388 -55 19 -236 31 -264 18z"/>
<path d="M4245 5246 c-179 -47 -346 -174 -428 -325 -28 -50 -77 -192 -77 -221
0 -15 6 -16 41 -10 22 4 46 13 52 19 6 6 19 11 28 11 10 0 25 7 33 16 9 8 28
17 43 20 16 3 33 12 40 21 7 8 27 17 44 19 18 2 40 10 48 18 17 14 125 66 138
66 5 0 16 9 26 21 11 13 25 18 36 14 12 -3 42 8 79 30 33 19 67 35 76 35 9 0
16 5 16 10 0 6 3 9 8 8 13 -4 72 21 72 30 0 5 6 9 13 9 8 0 34 9 58 20 24 11
51 24 59 27 40 18 94 53 97 63 5 13 -85 65 -142 82 -22 7 -47 15 -55 18 -17 7
-23 8 -135 17 -67 5 -95 2 -170 -18z"/>
<path d="M5375 2906 c-77 -29 -141 -88 -166 -153 -18 -47 -13 -129 11 -178 29
-61 106 -127 209 -180 139 -72 166 -110 120 -169 -18 -23 -28 -26 -80 -26 -67
0 -91 9 -132 51 -15 16 -29 29 -32 29 -3 0 -39 -28 -80 -62 l-75 -63 58 -55
c84 -80 138 -104 244 -108 77 -4 93 -1 147 23 76 34 131 93 160 169 26 71 27
111 1 178 -26 69 -101 143 -202 197 -145 78 -138 72 -138 114 0 31 3 37 23 38
47 3 92 -4 112 -17 20 -13 32 -11 118 17 l96 31 -14 28 c-23 44 -102 107 -161
130 -61 22 -168 26 -219 6z"/>
<path d="M7525 2894 c-117 -60 -186 -167 -212 -330 -13 -84 -14 -113 -3 -193
6 -52 16 -106 22 -120 46 -114 108 -192 183 -230 30 -15 77 -27 123 -31 l74
-8 64 -63 64 -63 65 64 65 64 -35 29 c-44 36 -47 80 -10 135 54 83 69 145 69
302 1 127 -2 153 -22 213 -43 123 -126 215 -221 245 -70 21 -169 15 -226 -14z
m198 -211 c47 -50 59 -95 59 -228 0 -102 -3 -130 -20 -169 -35 -78 -119 -110
-175 -66 -44 35 -62 101 -62 230 0 145 8 181 49 225 28 30 40 35 78 35 35 0
50 -6 71 -27z"/>
<path d="M741 2878 c-4 -13 -55 -213 -113 -446 l-105 -423 105 3 106 3 11 40
c17 66 15 65 140 65 127 0 127 0 140 -73 l7 -37 104 0 c57 0 104 4 104 9 0 5
-32 139 -70 298 -39 158 -84 344 -101 413 -45 189 -25 170 -184 170 -131 0
-136 -1 -144 -22z m188 -367 c44 -205 42 -214 -47 -209 -76 4 -80 13 -58 135
23 119 23 121 44 125 36 8 51 -4 61 -51z"/>
<path d="M1676 2884 c-8 -20 -8 -838 0 -858 5 -14 40 -16 290 -16 l285 0 -3
93 -3 92 -170 5 -169 5 -7 25 c-4 14 -7 170 -8 348 l-1 322 -104 0 c-85 0
-105 -3 -110 -16z"/>
<path d="M2670 2455 l0 -445 105 0 105 0 0 200 c0 153 3 200 13 201 6 0 22 2
35 5 26 5 31 -6 138 -264 58 -140 60 -143 88 -140 27 3 33 12 88 143 115 274
107 259 145 263 41 4 43 -5 43 -225 l0 -183 105 0 105 0 0 445 0 445 -116 0
-115 0 -33 -72 c-18 -40 -68 -157 -111 -260 -80 -192 -93 -210 -135 -188 -9 5
-35 55 -57 112 -41 102 -111 269 -151 361 l-21 47 -116 0 -115 0 0 -445z"/>
<path d="M4072 2563 c3 -387 2 -378 101 -481 125 -127 318 -124 448 7 88 89
89 96 89 483 l0 328 -99 0 -100 0 -3 -321 -3 -321 -33 -29 c-59 -53 -158 -35
-181 33 -7 19 -11 139 -11 319 0 158 -3 294 -6 303 -5 13 -24 16 -106 16 l-99
0 3 -337z"/>
<path d="M6260 2810 l0 -90 74 0 c41 0 86 -4 100 -10 l26 -10 0 -345 0 -346
108 3 107 3 1 345 1 345 79 3 c131 4 124 -2 124 102 l0 90 -310 0 -310 0 0
-90z"/>
<path d="M8435 2888 c-3 -7 -4 -206 -3 -443 l3 -430 208 -3 c205 -2 208 -2
262 23 97 46 165 149 165 249 0 51 -46 151 -89 190 -36 35 -38 58 -11 117 24
53 25 117 5 167 -20 46 -48 77 -104 113 l-45 29 -193 0 c-146 0 -195 -3 -198
-12z m388 -200 c21 -25 17 -72 -7 -96 -8 -8 -43 -16 -78 -19 -76 -6 -89 4 -91
73 -2 42 1 50 23 61 39 21 130 10 153 -19z m32 -329 c14 -14 28 -41 31 -60 5
-28 1 -41 -21 -67 -26 -32 -28 -32 -116 -32 -63 0 -91 4 -94 13 -2 6 -6 43 -8
80 -6 92 2 100 105 95 67 -3 81 -6 103 -29z"/>
<path d="M9490 2455 l0 -445 285 0 285 0 0 95 0 95 -169 0 c-123 0 -172 3
-177 12 -4 7 -7 156 -5 333 1 176 -1 328 -4 338 -6 15 -21 17 -111 17 l-104 0
0 -445z"/>
</g>
</svg>
