<?xml version="1.0" encoding="utf-8"?>
<!-- Generator: Adobe Illustrator 27.0.0, SVG Export Plug-In . SVG Version: 6.00 Build 0)  -->
<svg version="1.1" id="e4bbe722-77af-4dff-9d23-13f94132c30a"
	 xmlns="http://www.w3.org/2000/svg" xmlns:xlink="http://www.w3.org/1999/xlink" x="0px" y="0px" viewBox="0 0 921.7 653.4"
	 style="enable-background:new 0 0 921.7 653.4;" xml:space="preserve">
<style type="text/css">
	.st0{fill:#D0CDE1;}
	.st1{fill:#E67E22;}
	.st2{opacity:0.2;enable-background:new    ;}
	.st3{fill:#FFB8B8;}
	.st4{fill:#0E8E9F;}
	.st5{fill:#2F2E41;}
	.st6{fill:#3F3D56;}
</style>
<ellipse class="st0" cx="85.3" cy="578.4" rx="85" ry="6"/>
<ellipse class="st0" cx="343.3" cy="642.9" rx="221" ry="10.5"/>
<polygon class="st1" points="458.3,218.4 462.3,211.4 442.3,207.4 440.3,217.4 443.3,225.4 "/>
<polygon class="st2" points="458.3,218.4 462.3,211.4 442.3,207.4 440.3,217.4 443.3,225.4 "/>
<circle class="st3" cx="446.8" cy="187.9" r="26"/>
<polygon class="st3" points="424.8,187.9 403.8,222.9 434.8,240.9 450.8,203.9 "/>
<path class="st4" d="M422.8,228.9l-27-11c0,0-41,7-45,20s-4,118-4,118s-10,26,4,27c0,0-4,6,0,7s45,0,61,5s48,9,48,4v-9c0,0,7-7,3-19
	s-9-38-9-38s30-66,27-74s-39.6-32.7-39.6-32.7L422.8,228.9z"/>
<polygon class="st3" points="360.8,355.9 361.8,363.9 375.8,346.9 370.8,346.9 "/>
<path class="st4" d="M422.8,228.9l-29-7c0,0-6-5-6-11s9-15,15-21c1.1-1.1,2.5-1.7,4-1.7c5.9,0,13.1,7.7,13.1,7.7l-8,13.3l-0.4,0.6
	L422.8,228.9z"/>
<path class="st4" d="M445.2,217l17.1-5.6c0,0,5.5,21.5-0.5,22.5s-39-2-39-2L445.2,217z"/>
<path class="st5" d="M352.8,384.9l-13,74c0,0-5,9-3,13s3,4,0,6s-7,0-6,5c0.6,3,0.9,6,1,9l-28,96c0,0-18,8-5,13s26,9,29,4s0-11,0-11
	l46-110c0,0,7-10,7-16s23-49,23-49s1,43,2,46s-2,9-2,13s-2,4,0,6s2,25,2,25s-12,89-5,90s27-1,27-5s-3-5-3-5l13-76c0,0-1-5,1-9
	s2-4,2-6s-1-3,0-4c0.7-0.9,1-1.9,1-3c0,0-2-6-1-7s23-76,16-85S352.8,384.9,352.8,384.9z"/>
<path class="st5" d="M401.8,595.9l-7,16c0,0-16,18-4,22s16,3,16,3s5,1,5,3s40,17,43,4s-31-37-31-37v-12L401.8,595.9z"/>
<path class="st5" d="M324.7,603.3l1.5,17.4c0,0,9.4,22.2-3.2,22.1s-16.1-2.3-16.1-2.3s-5.1-0.7-5.7,1.2s-43.3,3.3-42-10
	s41.2-25.1,41.2-25.1l3.8-11.4L324.7,603.3z"/>
<path class="st5" d="M421.5,195c1.6-0.1,2.7-1.9,3.1-3.5s0.6-3.5,1.5-4.9c2.5-3.9,9-2.3,11.6-6.2c1.6-2.3,1.3-6.2,3.6-7.7
	c1.5-0.9,3.3-0.5,5,0.1c6.3,2.3,12.1,5.8,17.1,10.2l2.1-1.7l2.6,5.2c1-1.2,3-0.3,3.8,1.1s1.3,3.1,2.5,4.1c1.9,1.6,4.9,0.2,6.1-2
	s1-5.1,0.6-7.6c-1-6.4-3.2-12.6-6.3-18.3l2.4-1.4l-3.1-0.4l1.2-2.7l-3.2,0l1.3-2.3c-4.3,1.5-8.8-1.2-13-3.3
	c-6.9-3.4-14.7-5-22.3-3.8c-7.8,1.3-14.7,5.8-19.1,12.4c-3.3,5.2-5.2,12.7-3.5,18.9C416.8,186.7,423.4,187.6,421.5,195z"/>
<path class="st4" d="M356.8,233.9c0,0-6-1-10,7s-34,72-19,92s29,26,29,26l3,1l15-16l-5-7c0,0,0-7-4-8s-4,2-5-2s4-1-1-5s-1-6-1-6
	L356.8,233.9z"/>
<polygon class="st3" points="462.8,367.4 461.8,375.4 447.8,358.4 452.8,358.4 "/>
<path class="st4" d="M461.3,255.4c0,0,14-7,18,1s31.5,68,16.5,88s-29,26-29,26l-3,1l-15-16l5-7c0,0,0-7,4-8s4,2,5-2s-4-1,1-5
	s1-6,1-6L461.3,255.4z"/>
<polygon class="st2" points="366.3,273.4 355.3,317.4 368.3,333.4 362.3,313.4 "/>
<path class="st2" d="M420,196l-8,13.3c-5-1.7-5.4-13.4-5.2-21.1C412.8,188.2,420,196,420,196z"/>
<path class="st0" d="M250.1,615.7c0.2,17.8-10.3,24.1-23.4,24.2c-0.3,0-0.6,0-0.9,0c-0.6,0-1.2,0-1.8-0.1
	c-11.8-0.7-21-7.2-21.2-23.7c-0.2-17.1,21.5-39,23.1-40.6l0,0c0.1-0.1,0.1-0.1,0.1-0.1S249.9,597.9,250.1,615.7z"/>
<path class="st0" d="M216.1,529.8c0.1,12.6-7.3,17-16.5,17.1c-0.2,0-0.4,0-0.6,0c-0.4,0-0.8,0-1.3,0c-8.3-0.5-14.8-5.1-14.9-16.7
	c-0.1-12.1,15.2-27.5,16.3-28.6l0,0c0,0,0.1-0.1,0.1-0.1S216,517.3,216.1,529.8z"/>
<ellipse class="st0" cx="199.3" cy="545.2" rx="60" ry="4.2"/>
<rect x="525" y="279.8" class="st6" width="396.8" height="202"/>
<rect x="596.9" y="347.8" class="st4" width="40.2" height="3.3"/>
<rect x="650.5" y="347.8" class="st4" width="40.2" height="3.3"/>
<rect x="728.4" y="378.8" class="st4" width="40.2" height="3.3"/>
<rect x="782.8" y="378.8" class="st4" width="40.2" height="3.3"/>
<rect x="704.9" y="347.8" class="st4" width="118" height="3.3"/>
<rect x="596.9" y="378.8" class="st4" width="118" height="3.3"/>
<rect x="596.9" y="409.8" class="st4" width="118" height="3.3"/>
<rect x="740.9" y="409.8" class="st4" width="82" height="3.3"/>
<polygon class="st4" points="585.7,362 571.5,347.8 585.7,333.7 588.5,336.5 577.2,347.8 588.5,359.1 "/>
<polygon class="st4" points="861,427.3 858.2,424.4 869.5,413.1 858.2,401.8 861,399 875.2,413.1 "/>
<rect x="829.5" y="410.7" transform="matrix(0.29 -0.957 0.957 0.29 204.1647 1100.6143)" class="st4" width="28.9" height="4"/>
<path class="st0" d="M92.8,551.7l74.1-110.1L93,563.5l0.2,12.4c-5.4,0-10.8,0-16.1-0.3l3.7-159.3l-0.1-1.2l0.1-0.2l0.4-15.1L0,282
	l81,106.5l0.3,3.2l2.8-120.4L14,149.3l70.3,101L83.5,0.8l0-0.8l0,0.8l4.7,196.5l63.9-79.8l-63.6,96.8L89.8,322l58.8-105.1L90,337.8
	l0.8,59.9l85.4-146.4L91.1,418.5L92.8,551.7z"/>
</svg>
