<?xml version="1.0" encoding="utf-8"?>
<!-- Generator: Adobe Illustrator 27.0.0, SVG Export Plug-In . SVG Version: 6.00 Build 0)  -->
<svg version="1.1" id="b5ecd551-b8d9-47b1-bd91-255ff33e7450"
	 xmlns="http://www.w3.org/2000/svg" xmlns:xlink="http://www.w3.org/1999/xlink" x="0px" y="0px" viewBox="0 0 1058 682.6"
	 style="enable-background:new 0 0 1058 682.6;" xml:space="preserve">
<style type="text/css">
	.st0{fill:#E6E6E6;}
	.st1{fill:#2F2E41;}
	.st2{fill:#FFB8B8;}
	.st3{fill:#3F3D56;}
	.st4{fill:#0E8E9F;}
	.st5{fill:#A0616A;}
	.st6{fill:#D0CDE1;}
	.st7{fill:#F2F2F2;}
	.st8{fill:#FFFFFF;}
</style>
<path class="st0" d="M367.9,372c0.9,2.1,1.8,4.2,2.8,6.3l-2.1,1c-1-2.1-1.9-4.2-2.8-6.3L367.9,372z"/>
<path class="st0" d="M739.1,205.3c1.3,2.8,2.6,5.6,3.7,8.5l-2.1,0.9c-1.8-4.2-3.7-8.5-5.8-12.6l2.1-1
	C737.7,202.5,738.4,203.9,739.1,205.3z M730.3,188.7l-2,1.2c-2.3-4-4.8-7.9-7.4-11.7l1.9-1.3C725.5,180.7,728,184.7,730.3,188.7z
	 M747.8,226.9c1.5,4.4,2.9,8.9,4,13.4l-2.2,0.6c-1.2-4.4-2.5-8.9-4-13.3L747.8,226.9z M714.6,165.6l-1.8,1.4
	c-2.8-3.6-5.9-7.2-8.9-10.6l1.7-1.5C708.6,158.3,711.7,161.9,714.6,165.6z M754.9,254c0.9,4.6,1.6,9.2,2.2,13.9l-2.3,0.3
	c-0.6-4.6-1.3-9.2-2.1-13.7L754.9,254z M695.8,144.8l-1.6,1.7c-3.3-3.2-6.8-6.3-10.3-9.3l1.5-1.8
	C688.9,138.4,692.4,141.5,695.8,144.8z M758.3,281.9c0.2,4.7,0.3,9.4,0.2,14l-2.3,0c0.1-4.6,0-9.3-0.2-13.9L758.3,281.9z
	 M674.3,126.8l-1.4,1.9c-3.7-2.7-7.6-5.3-11.5-7.8l1.2-1.9C666.6,121.4,670.5,124.1,674.3,126.8z M757.7,310
	c-0.4,4.6-1,9.3-1.7,13.9l-2.3-0.4c0.7-4.5,1.3-9.2,1.7-13.8L757.7,310z M650.5,111.9l-1.1,2c-4.1-2.2-8.2-4.2-12.4-6.1l0.9-2.1
	C642.2,107.6,646.4,109.7,650.5,111.9z M753.4,337.7c-1,4.5-2.2,9.1-3.6,13.6l-2.2-0.7c1.3-4.4,2.5-8.9,3.5-13.4L753.4,337.7z
	 M625,100.4l-0.8,2.2c-4.3-1.6-8.7-3.1-13.2-4.4l0.7-2.2C616.1,97.3,620.6,98.8,625,100.4z M745.3,364.5c-1.6,4.4-3.5,8.7-5.4,12.9
	l-2.1-1c1.9-4.2,3.7-8.5,5.3-12.8L745.3,364.5z M598.1,92.5l-0.5,2.2c-4.5-1-9.1-1.9-13.6-2.5l0.3-2.3
	C588.9,90.6,593.5,91.5,598.1,92.5z M733.7,390c-2.2,4.1-4.6,8.2-7.1,12.1l-1.9-1.2c2.5-3.9,4.8-7.9,7-12L733.7,390z M570.4,88.3
	l-0.2,2.3c-4.6-0.4-9.3-0.6-13.9-0.7l0-2.3C561,87.7,565.7,87.9,570.4,88.3z M718.6,413.7c-2.8,3.7-5.7,7.4-8.7,11l-1.8-1.5
	c3-3.5,5.9-7.2,8.6-10.9L718.6,413.7z M542.3,87.9l0.1,2.3c-4.6,0.3-9.3,0.7-13.8,1.3l-0.3-2.3C532.9,88.6,537.6,88.2,542.3,87.9z
	 M700.5,435c-3.2,3.3-6.7,6.6-10.1,9.7l-1.5-1.7c3.4-3.1,6.8-6.3,10-9.6L700.5,435z M514.5,91.4l0.4,2.3c-4.5,0.9-9.1,1.9-13.5,3.1
	l-0.6-2.2C505.3,93.4,509.9,92.3,514.5,91.4z M679.7,453.7c-3.7,2.9-7.5,5.6-11.4,8.2L667,460c3.8-2.6,7.6-5.3,11.2-8.1L679.7,453.7
	z M487.4,98.7l0.7,2.2c-4.3,1.5-8.7,3.2-12.9,5l-0.9-2.1C478.6,101.9,483,100.2,487.4,98.7L487.4,98.7z M656.4,469.4
	c-4,2.3-8.2,4.5-12.4,6.6l-1-2.1c4.1-2,8.3-4.2,12.2-6.5L656.4,469.4z M462.6,111.7c-4.1,2.1-8.2,4.3-12.2,6.7l-1.2-2
	c4-2.4,8.1-4.6,12.3-6.7L462.6,111.7z M438.8,125.8c-3.8,2.6-7.5,5.4-11.1,8.3l-1.4-1.8c3.6-2.9,7.4-5.7,11.3-8.4L438.8,125.8z
	 M417.1,143.1c-3.4,3.1-6.7,6.4-9.9,9.7l-1.7-1.6c3.2-3.4,6.6-6.7,10-9.8L417.1,143.1z M398,163.1c-2.9,3.5-5.8,7.2-8.5,11l-1.9-1.3
	c2.7-3.8,5.6-7.5,8.6-11.1L398,163.1z M381.9,185.7c-2.4,3.9-4.7,8-6.9,12l-2-1.1c2.2-4.1,4.5-8.2,7-12.2L381.9,185.7z M368.9,210.2
	c-1.9,4.2-3.6,8.5-5.2,12.9l-2.2-0.8c1.6-4.4,3.4-8.8,5.2-13L368.9,210.2z M359.4,236.2c-1.3,4.4-2.4,9-3.4,13.5l-2.2-0.5
	c1-4.5,2.1-9.1,3.4-13.6L359.4,236.2z M353.6,263.3c-0.7,4.6-1.2,9.2-1.5,13.8l-2.3-0.2c0.4-4.6,0.9-9.3,1.5-13.9L353.6,263.3z
	 M351.5,291c0,4.6,0.1,9.3,0.4,13.9l-2.3,0.1c-0.3-4.6-0.4-9.4-0.4-14L351.5,291z M353.2,318.7c0.6,4.6,1.4,9.2,2.3,13.7l-2.3,0.5
	c-0.9-4.6-1.7-9.2-2.3-13.8L353.2,318.7z M358.7,345.8c1.2,4.4,2.6,8.9,4.1,13.2l-2.2,0.8c-1.5-4.4-3-8.9-4.2-13.4L358.7,345.8z"/>
<path class="st0" d="M630.1,479.7l0.9,2.1c-2.1,0.9-4.3,1.7-6.5,2.5l-0.8-2.2C625.8,481.4,627.9,480.6,630.1,479.7z"/>
<path class="st1" d="M235.3,75.9c-11.6-19.6-34.6-20.5-34.6-20.5s-22.4-2.9-36.7,27c-13.4,27.8-31.8,54.7-3,61.2l5.2-16.2l3.2,17.4
	c4.1,0.3,8.2,0.4,12.4,0.2c30.9-1,60.4,0.3,59.4-10.8C240,119.5,246.5,94.7,235.3,75.9z"/>
<polygon class="st2" points="142.5,505.7 142.5,536.7 126.5,534.7 126.5,508.7 "/>
<polygon class="st2" points="253.5,525.7 259.5,549.7 273.5,544.7 263.5,521.7 "/>
<polygon class="st2" points="145.5,173.7 147.5,228.7 160.5,232.7 164.5,179.7 "/>
<path class="st2" d="M149.5,224.7l-2,4l-18,17c0,0-13,11-8,18l13-6v-4l30-21L149.5,224.7z"/>
<polygon class="st2" points="222.5,240.7 222.5,263.7 145.5,251.7 154.5,234.7 "/>
<path class="st2" d="M257.5,168.7c0,0,7,19,8,21s13,48,13,48l30,48c0,0,22,26,8,27s-24-22-24-22l-30-39l-28-74L257.5,168.7z"/>
<circle class="st2" cx="200" cy="97.2" r="29"/>
<path class="st2" d="M191.5,116.7c0,0,0,21-11,24s9,25,9,25l40-20c0,0-17-6-12-29H191.5z"/>
<path class="st3" d="M185,138.2L185,138.2l-21.2,7c-11.7,4.7-19.8,15.7-20.9,28.3c-0.4,3.8,0.2,7.7,1.6,11.2c6,14,13,17,13,17
	s1,6,0,7s-3,2-2,5s2,2,1,5s-5,10-5,10s4,2,1,4s-4,6-4,6s68,3,75,10l12-49c0,0,28-11,27-22s-7-21-14-24s-24-11-24-11
	s-2.2,7.4-22.7,5.6C194.9,147.7,188.7,144,185,138.2z"/>
<path class="st1" d="M224.5,256.7c0,0-66-4-76-18l-28,27l3,17l-1,222c0,0-1,11,2,11s19,2,20,0s-3-6,4-8s7,5,7-2s-1-37-3-42
	s23-120,23-120s66,178,71,182s6,10,9,9s17-5,18-6s-1-9,0-12s4,1,0-5s-5-10-5-13s-37-196-37-196s8-18-4-28L224.5,256.7z"/>
<path class="st1" d="M144.5,528.7c0,0-10-10-14-10h-10c0,0-9,19-12,20s-23,25-5,25s25-6,25-6l16-8V528.7z"/>
<path class="st1" d="M257.8,543l-2.3,20.6c0,0,20,8,20,9s32,16,34,3s-16-24-16-24s-19.2-22.7-22.6-21.9s-3.4,6.9-3.4,6.9L257.8,543z
	"/>
<polygon class="st3" points="464,432.8 184,432.8 184,308.1 324,371 464,308.1 "/>
<polygon class="st4" points="184,308.1 464,308.1 324.3,380.2 "/>
<circle class="st0" cx="324.3" cy="380.2" r="11.6"/>
<circle class="st1" cx="203.5" cy="55.5" r="16.6"/>
<path class="st1" d="M185.2,51.1c0-8.5,6.4-15.6,14.9-16.5c-9.1-1-17.3,5.6-18.3,14.8c-1,9.1,5.6,17.3,14.8,18.3
	c1.2,0.1,2.3,0.1,3.5,0C191.6,66.7,185.2,59.6,185.2,51.1z"/>
<polygon class="st1" points="230.2,74 207.5,62.1 176.1,67 169.7,95.6 185.8,95 190.3,84.5 190.3,94.8 197.7,94.5 202.1,77.8 
	204.8,95.6 231.2,95.1 "/>
<rect x="575" y="399.2" class="st3" width="483" height="235"/>
<rect x="575" y="399.2" class="st4" width="483" height="30"/>
<circle class="st0" cx="645" cy="516.2" r="44"/>
<rect x="761" y="491.7" class="st0" width="240" height="7"/>
<rect x="761" y="512.7" class="st0" width="240" height="7"/>
<rect x="761" y="533.7" class="st0" width="145" height="7"/>
<path class="st5" d="M889,190.6c0,0-6.5,21.5-2.8,28s-6.5,20.5-23.3,14s-17.7-14-17.7-14s6.5-10.3,8.4-31.7L889,190.6z"/>
<path class="st5" d="M974.4,401c0,0,33.6,16.8,18.7,39.2c-8.7,13-25.2,38.3-37.6,57.2c-10.3,15.8-18.3,33.1-23.5,51.3l-2.4,8.1
	l-9.3,11.2l-19.6-22.4c0,0,28.9-53.2,28.9-63.5s23.3-42.9,23.3-42.9l-23.3-14.9C929.6,424.4,955.7,394.5,974.4,401z"/>
<path class="st5" d="M865.2,458.9c0,0-0.9,26.1-1.9,36.4c-0.8,8.5,6.7,32.2,4.1,58.6c-1.6,17.1-1.4,34.3,0.6,51.3l3.7,33.9l-28,2.8
	l-9.3-76.5c0,0-5.6-54.1-2.8-71.9l-0.9-37.3C830.7,456.1,851.2,448.6,865.2,458.9z"/>
<path class="st1" d="M915.1,350.2c0,0,65.3,42,66.3,55.1c0,0-37.3-3.7-38.3,28.9c0,0-22.4-8.4-28-10.3s-35.5-21.5-35.5-21.5
	s-12.1,9.3-12.1,24.3s0.9,41.1,0,42.9s-22.4-25.2-40.1-1.9l-12.1-64.4c0,0-3.7-39.2,3.7-42l52.3-19.6L915.1,350.2z"/>
<circle class="st5" cx="875.5" cy="174.3" r="28"/>
<path class="st6" d="M882.5,223.3c0,0-31.6,8.3-35.9-7.5c0,0-38.8,7.5-45.3,32.7s15.9,85.9,15.9,87.7s-18.7,13.1-10.3,18.7
	s15.9-0.9,12.1,6.5s-10.3,9.3-4.7,11.2s39.2-27.1,65.3-19.6s39.2,1.9,39.2,1.9l11.7-101.3c0.9-7.9-2.2-15.7-8.3-20.8
	c-5.8-4.8-13.6-10-21.1-11.4c-14.9-2.8-15.6-4.3-15.6-4.3L882.5,223.3z"/>
<path class="st5" d="M912.3,386.6c0,0-8.4,47.6-19.6,41.1s2.8-41.1,2.8-41.1L912.3,386.6z"/>
<path class="st5" d="M873.4,392.7c0,0,14.6,46.1,1.6,45.5s-16.5-37.7-16.5-37.7L873.4,392.7z"/>
<path class="st1" d="M924.9,555c0,0,6.5-7.5,10.3,2.8s14,23.3,14,23.3s22.4,25.2,6.5,26.1s-38.3-22.4-38.3-22.4l-26.1-24.3
	c0,0,8.7-21.1,12.7-21.3S907.2,564.3,924.9,555z"/>
<path class="st1" d="M864.3,632.4c0,0,6.6,1.9,6.1-6c0,0,23.8,12.6,17.2,21.9c-0.1,0.1-0.1,0.2-0.2,0.3
	c-9.2,13.1-21.8,23.4-36.4,29.9c-7.2,3.2-13.6,5.3-14.7,3.4c-2.8-4.7-2.8-14-0.9-17.7s11.2-10.3,8.4-15.9s0.9-20.5,5.6-20.5
	S864.3,632.4,864.3,632.4z"/>
<path class="st1" d="M899.9,150.5c0,0-9-19.5-26.3-15s-27,11.3-27.8,18c-0.8,6.8,0.4,16.9,0.4,16.9s1.9-13.9,13.9-10.9
	s30.8,0.8,30.8,0.8l3,27c0,0,3.4-4.9,7.1-1.9S911.9,156.5,899.9,150.5z"/>
<path class="st6" d="M817.2,247.5c0,0,22.4,60.7,20.5,68.1s0,8.4,2.8,10.3s10.3,21.5,10.3,21.5s4.7,11.2,8.4,14s3.7,10.3,3.7,10.3
	s9.3,9.3,7.5,11.2s-1.9,4.7,1.9,7.5s7.5,6.5,5.6,7.5S862.9,409,859.1,408s1.9-4.7-2.8-6.5s-7.5-4.7-5.6-5.6s7.5-0.9,1.9-2.8
	s-25.2-14-31.7-28.9s-37.8-105.3-18.9-118C802,246.2,809.7,236.3,817.2,247.5z"/>
<path class="st6" d="M920.7,237.3l0.4,0.2c7.2,3,12.4,9.3,14,16.9c2,9.8,4,23.9,2.5,37.1c-2.8,23.3-4.7,33.6-8.4,41.1
	s-4.7,4.7-3.7,10.3s5.6,0.9,0.9,8.4s-7.5,5.6-5.6,9.3s4.7,3.7,0.9,8.4s-3.7,6.5-4.7,8.4s-3.7,15.9-3.7,15.9s-14.9-4.7-23.3-2.8
	c0,0,7.5-13.1,5.6-15.9s-4.7-3.7-1.9-6.5s7.5-1.9,2.8-4.7s3.7-31.7,3.7-31.7L920.7,237.3z"/>
<path class="st3" d="M669,538.4c0,18.1-10.8,24.5-24.1,24.5c-0.3,0-0.6,0-0.9,0c-0.6,0-1.2,0-1.8-0.1c-12-0.8-21.3-7.5-21.3-24.4
	c0-17.4,22.3-39.5,24-41.1l0,0c0.1-0.1,0.1-0.1,0.1-0.1S669,520.3,669,538.4z"/>
<path class="st7" d="M644,560.1l8.8-12.3l-8.8,13.7l0,1.4c-0.6,0-1.2,0-1.8-0.1l0.9-18.1l0-0.1l0,0l0.1-1.7l-8.8-13.7l8.9,12.4
	l0,0.4l0.7-13.7l-7.6-14.1l7.7,11.7l0.7-28.4l0-0.1v0.1l-0.1,22.4l7.5-8.9l-7.6,10.8l-0.2,12.3l7-11.8l-7.1,13.6l-0.1,6.8l10.2-16.4
	L644.3,545L644,560.1z"/>
<path class="st3" d="M48.1,490.8c-0.2-0.3-4.5-7.6-6-22.6c-1.4-13.8-0.5-37.1,11.6-69.6c22.9-61.6-5.3-111.3-5.6-111.8l1.4-0.8
	c0.1,0.1,7.3,12.8,11.6,33c5.7,26.7,3.6,54.5-6,80.2c-22.9,61.5-5.9,90.6-5.7,90.9L48.1,490.8z"/>
<circle class="st4" cx="39.1" cy="272.7" r="10.4"/>
<circle class="st3" cx="72" cy="311.3" r="10.4"/>
<circle class="st4" cx="49.6" cy="337" r="10.4"/>
<circle class="st4" cx="76.9" cy="358.6" r="10.4"/>
<circle class="st3" cx="41.5" cy="392.4" r="10.4"/>
<path class="st3" d="M54.4,491.2c0,0-10.4-25.7,20.9-45L54.4,491.2z"/>
<path class="st3" d="M41.5,490.7c0,0-4.8-27.3-41.5-27.1L41.5,490.7z"/>
<rect x="451" class="st3" width="274" height="152.6"/>
<rect x="501.3" y="58.4" class="st8" width="172.7" height="5.1"/>
<rect x="501.3" y="78.6" class="st8" width="172.7" height="5.1"/>
<rect x="501.3" y="98.9" class="st8" width="172.7" height="5.1"/>
<rect x="451" y="0.2" class="st4" width="274" height="17"/>
<circle class="st0" cx="462.2" cy="9.2" r="6.2"/>
<circle class="st0" cx="479" cy="9.2" r="6.2"/>
<circle class="st0" cx="495.8" cy="9.2" r="6.2"/>
<circle class="st8" cx="590" cy="414.2" r="7"/>
<circle class="st8" cx="610" cy="414.2" r="7"/>
<circle class="st8" cx="630" cy="414.2" r="7"/>
</svg>
